# xmcd
#
# Track frame offsets: 
#        150
#        71416
#        90363
#        123966
#        172270
#        184809
#        197750
#        210706
#        227285
#        243455
#
# Disc length: 3543 seconds
#
# Revision: 4
# Processed by: cddbd v1.5.2PL0 Copyright (c) Steve Scherf et al.
# Submitted via: ExactAudioCopyFreeDBPlugin 1.0
#
DISCID=830dd50a
DTITLE=Booker T. and the M.G.'s - McLemore Avenue
DYEAR=2011
DGENRE=Soul
TTITLE0=Medley:  Golden Slumbers - Carry That Weight - The End - Here 
TTITLE0=Comes the Sun - Come Together
TTITLE1=Something
TTITLE2=Medley:  Because - You Never Give Me Your Money
TTITLE3=Medley:  Sun King - Mean Mr. Mustard - Polythene Pam - She Cam
TTITLE3=e in Through the Bathroom Window - I Want You (She's So Heavy)
TTITLE4=You Can't Do That (bonus track)
TTITLE5=Day Tripper (bonus track)
TTITLE6=Michelle (bonus track)
TTITLE7=Eleanor Rigby (bonus track)
TTITLE8=Lady Madonna (bonus track)
TTITLE9=You Can't Do That (alternate take) (bonus track)
EXTD=
EXTT0=
EXTT1=
EXTT2=
EXTT3=
EXTT4=
EXTT5=
EXTT6=
EXTT7=
EXTT8=
EXTT9=
PLAYORDER=
